<?xml version="1.0" standalone="no"?>
<!DOCTYPE svg PUBLIC "-//W3C//DTD SVG 20010904//EN"
 "http://www.w3.org/TR/2001/REC-SVG-20010904/DTD/svg10.dtd">
<svg version="1.0" xmlns="http://www.w3.org/2000/svg"
 width="110.000000pt" height="102.000000pt" viewBox="0 0 110.000000 102.000000"
 preserveAspectRatio="xMidYMid meet">

<g transform="translate(0.000000,102.000000) scale(0.100000,-0.100000)"
fill="#000000" stroke="none">
<path d="M349 972 c-68 -44 -165 -169 -184 -237 -11 -40 -12 -45 -14 -85 -1
-28 -4 -32 -12 -20 -8 12 -9 10 -4 -7 3 -12 2 -24 -2 -26 -5 -3 -9 -20 -10
-39 -1 -30 -1 -31 7 -8 9 24 9 24 7 -5 -1 -16 -7 -29 -14 -28 -7 2 -11 -22
-12 -74 -1 -92 6 -123 28 -123 12 0 13 -2 3 -9 -10 -6 -11 -13 -1 -34 7 -15
15 -27 19 -27 4 0 10 -13 12 -29 2 -17 1 -28 -4 -25 -4 3 -8 -1 -8 -8 1 -23
58 -78 75 -72 19 8 33 -25 15 -36 -27 -17 34 -35 125 -36 238 -4 428 -3 436 2
5 3 7 9 4 14 -3 5 -1 11 5 15 5 3 10 0 10 -7 0 -9 4 -8 15 3 18 18 9 53 -11
45 -8 -3 -14 -1 -14 4 0 5 -6 7 -13 4 -7 -2 -13 4 -14 16 -2 21 21 27 46 11
18 -12 71 42 71 71 0 12 8 27 18 34 15 12 14 13 -11 4 -40 -14 -45 -12 -19 6
12 8 22 23 23 32 0 14 2 13 9 -3 7 -19 8 -19 18 5 11 28 56 80 70 80 30 0 32
115 3 168 -7 13 -10 36 -6 51 4 19 1 32 -10 41 -8 7 -15 17 -15 22 0 12 -56
94 -82 120 -10 10 -18 23 -18 29 0 5 -4 8 -8 5 -5 -3 -24 11 -43 31 -19 21
-27 34 -19 29 8 -4 6 0 -4 8 -11 9 -28 16 -38 16 -11 0 -23 11 -28 25 -5 14
-16 25 -22 24 -7 -1 -22 -1 -33 1 l-20 1 20 8 c16 7 9 10 -30 15 -27 4 -77 11
-111 16 -108 17 -155 13 -205 -18z m198 -66 c2 -2 -12 -6 -32 -8 -21 -2 -40 1
-46 8 -8 9 0 11 32 8 23 -2 44 -6 46 -8z m13 -37 c0 -11 -4 -18 -10 -14 -5 3
-7 12 -3 20 7 21 13 19 13 -6z m-335 -79 c3 -5 1 -10 -4 -10 -6 0 -11 5 -11
10 0 6 2 10 4 10 3 0 8 -4 11 -10z m91 -2 c4 -6 3 -8 -3 -5 -12 8 -33 -43 -33
-79 0 -29 -38 -53 -51 -33 -5 8 -9 19 -9 24 0 6 -5 3 -10 -5 -8 -12 -10 -10
-10 9 0 23 1 24 20 6 23 -21 39 -12 24 13 -8 13 -4 23 20 49 34 36 41 39 52
21z m156 -90 c-11 -11 -39 -1 -46 18 -4 10 2 14 19 14 14 0 25 5 25 10 0 6 -4
10 -10 10 -14 0 -13 18 3 34 10 11 13 5 15 -31 2 -25 -1 -50 -6 -55z m398 31
c0 -5 -4 -9 -10 -9 -5 0 -10 7 -10 16 0 8 5 12 10 9 6 -3 10 -10 10 -16z
m-243 -36 c-3 -10 -5 -2 -5 17 0 19 2 27 5 18 2 -10 2 -26 0 -35z m334 -25
c16 -18 29 -38 29 -46 0 -7 5 -10 10 -7 6 3 10 1 10 -4 0 -14 -17 -14 -25 -1
-4 6 -10 8 -15 5 -4 -3 -6 5 -3 17 3 13 3 20 -2 16 -7 -7 -17 1 -44 35 -25 31
8 19 40 -15z m-237 -68 c-5 -22 -9 -28 -15 -18 -13 19 -11 50 2 42 8 -4 9 1 5
17 -6 19 -5 21 3 7 6 -9 8 -30 5 -48z m-246 14 c-3 -2 -20 -1 -39 3 l-34 7 35
6 c31 5 50 -3 38 -16z m-149 13 c-2 -1 -13 -9 -24 -17 -19 -14 -19 -14 -6 3 7
9 18 17 24 17 6 0 8 -1 6 -3z m601 -17 c11 -11 16 -20 12 -20 -5 0 -17 9 -27
20 -10 11 -15 20 -12 20 4 0 16 -9 27 -20z m-565 -22 c-4 -33 -6 -35 -14 -13
-7 16 1 33 15 35 1 0 0 -10 -1 -22z m540 12 c3 -5 1 -10 -4 -10 -6 0 -11 5
-11 10 0 6 2 10 4 10 3 0 8 -4 11 -10z m-320 -10 c3 -5 2 -10 -4 -10 -5 0 -13
5 -16 10 -3 6 -2 10 4 10 5 0 13 -4 16 -10z m18 -34 c3 -8 -2 -13 -16 -12 -11
1 -22 6 -24 11 -5 16 35 16 40 1z m267 -18 c0 -12 -14 -10 -28 4 -19 19 -14
29 8 16 11 -7 20 -16 20 -20z m-117 -101 c-2 -4 1 -14 7 -22 10 -13 8 -15 -15
-15 -25 0 -27 3 -21 28 4 15 9 38 10 52 5 38 7 38 16 0 5 -19 6 -38 3 -43z
m172 28 c-1 -25 -7 -51 -13 -57 -9 -9 -12 -9 -12 -1 0 7 -15 -2 -32 -18 -27
-24 -34 -27 -36 -13 -2 9 1 21 7 27 7 7 7 15 1 22 -7 9 -5 16 5 25 9 8 15 9
14 4 -4 -23 2 -45 11 -39 6 4 8 11 4 16 -6 10 35 79 47 79 3 0 5 -20 4 -45z
m-540 -14 c-1 -14 2 -32 7 -38 8 -10 4 -13 -15 -13 -39 0 -56 10 -50 28 17 49
63 67 58 23z m-85 -51 c0 -39 -3 -50 -16 -50 -13 0 -14 3 -5 14 10 12 8 13 -8
9 -37 -9 -23 -30 24 -37 66 -10 59 -32 -9 -28 -69 5 -92 25 -73 65 6 15 18 25
24 22 7 -2 12 0 10 4 -3 14 26 51 40 51 9 0 13 -16 13 -50z m163 19 c4 -16 1
-20 -16 -17 -12 2 -23 11 -25 21 -5 25 34 22 41 -4z m109 -31 c-5 -20 -6 -20
-19 -3 -18 26 -16 34 6 28 13 -3 17 -11 13 -25z m388 -42 c0 -3 -4 -8 -10 -11
-5 -3 -10 -1 -10 4 0 6 5 11 10 11 6 0 10 -2 10 -4z m-496 -38 c-3 -4 2 -5 10
-2 9 3 16 1 16 -5 0 -6 -9 -11 -20 -11 -15 0 -20 7 -20 28 0 20 3 23 9 12 6
-8 7 -18 5 -22z m151 -13 l30 -14 -39 2 c-22 1 -41 8 -44 15 -5 16 15 15 53
-3z m55 5 c0 -5 -4 -10 -10 -10 -5 0 -10 5 -10 10 0 6 5 10 10 10 6 0 10 -4
10 -10z m-425 -28 c-3 -3 -11 0 -18 7 -9 10 -8 11 6 5 10 -3 15 -9 12 -12z
m665 14 c0 -2 -7 -7 -16 -10 -8 -3 -12 -2 -9 4 6 10 25 14 25 6z m-366 -62 c3
-8 2 -12 -4 -9 -6 3 -10 10 -10 16 0 14 7 11 14 -7z m-111 -25 c-8 -8 -13 -8
-17 0 -4 6 -2 11 4 11 6 0 8 6 4 13 -6 10 -4 10 7 0 9 -10 10 -16 2 -24z m57
-11 c0 -6 3 -8 7 -5 3 4 12 -5 20 -19 18 -36 17 -38 -9 -14 -12 11 -28 20 -35
20 -14 0 -17 12 -6 23 10 11 23 8 23 -5z m-251 -43 c0 -5 -4 -3 -9 5 -9 13
-10 13 -10 0 0 -13 -1 -13 -10 0 -6 9 -5 19 3 28 9 12 12 11 18 -5 4 -10 8
-22 8 -28z m121 30 c0 -8 -9 -15 -19 -15 -23 0 -36 -16 -21 -25 5 -3 10 -11
10 -16 0 -6 -4 -8 -9 -5 -5 4 -11 0 -14 -6 -3 -7 -5 2 -4 20 0 25 5 34 24 38
12 4 23 10 23 15 0 5 2 9 5 9 3 0 5 -7 5 -15z m40 5 c0 -5 -4 -10 -10 -10 -5
0 -10 5 -10 10 0 6 5 10 10 10 6 0 10 -4 10 -10z m323 -17 c4 7 6 8 6 1 1 -6
-6 -17 -15 -25 -13 -10 -17 -10 -25 2 -14 23 -10 30 10 19 14 -7 21 -6 24 3z
m37 -28 c-7 -8 -17 -15 -22 -15 -6 0 -5 7 2 15 7 8 17 15 22 15 6 0 5 -7 -2
-15z m-230 -25 c24 -15 7 -18 -20 -3 -14 7 -18 13 -10 13 8 0 22 -4 30 -10z
m98 -9 c3 -8 0 -11 -6 -7 -7 4 -20 2 -30 -3 -24 -13 -36 -3 -20 16 14 17 50
13 56 -6z"/>
<path d="M901 454 c0 -11 3 -14 6 -6 3 7 2 16 -1 19 -3 4 -6 -2 -5 -13z"/>
<path d="M768 913 c7 -3 16 -2 19 1 4 3 -2 6 -13 5 -11 0 -14 -3 -6 -6z"/>
<path d="M120 265 c0 -5 5 -17 10 -25 5 -8 10 -10 10 -5 0 6 -5 17 -10 25 -5
8 -10 11 -10 5z"/>
<path d="M808 143 c7 -3 16 -2 19 1 4 3 -2 6 -13 5 -11 0 -14 -3 -6 -6z"/>
</g>
</svg>
